HIERARCHY
ROOT Hips
{
OFFSET -0.1795 -22.3333 2.8219000000000003
	CHANNELS 6 Xposition Yposition Zposition Zrotation Yrotation Xrotation 
	JOINT LeftUpLeg
	{
OFFSET 6.952 -9.140600000000001 -0.6815
		CHANNELS 3 Zrotation Yrotation Xrotation
		JOINT LeftLeg
		{
OFFSET 3.4277 -37.5199 -0.4496
			CHANNELS 3 Zrotation Yrotation Xrotation
			JOINT LeftFoot
			{
OFFSET -1.3596000000000001 -39.7961 -4.3693
				CHANNELS 3 Zrotation Yrotation Xrotation
				JOINT LeftToe
				{
OFFSET 2.6358 -5.5791 11.9288
					CHANNELS 3 Zrotation Yrotation Xrotation
					End Site
					{
OFFSET 0.0 0.0 0.0
					}
				}
			}
		}
	}
	JOINT RightUpLeg
	{
OFFSET -6.7669999999999995 -9.052200000000001 -0.432
		CHANNELS 3 Zrotation Yrotation Xrotation
		JOINT RightLeg
		{
OFFSET -3.8289999999999997 -38.2569 -0.885
			CHANNELS 3 Zrotation Yrotation Xrotation
			JOINT RightFoot
			{
OFFSET 1.5774 -39.8415 -4.2312
				CHANNELS 3 Zrotation Yrotation Xrotation
				JOINT RightToe
				{
OFFSET -2.5372 -4.8144 12.3348
					CHANNELS 3 Zrotation Yrotation Xrotation
					End Site
					{
OFFSET 0.0 0.0 0.0
					}
				}
			}
		}
	}
	JOINT Spine
	{
OFFSET -0.2533 10.8963 -2.6696
		CHANNELS 3 Zrotation Yrotation Xrotation
		JOINT Spine1
		{
OFFSET 0.5487 13.517999999999999 0.1092
			CHANNELS 3 Zrotation Yrotation Xrotation
			JOINT Spine2
			{
OFFSET 0.1457 5.292199999999999 2.5425
				CHANNELS 3 Zrotation Yrotation Xrotation
				JOINT Neck
				{
OFFSET -0.2778 21.387 -4.2857
					CHANNELS 3 Zrotation Yrotation Xrotation
					JOINT Head
					{
OFFSET 0.5152 6.497 5.1349
						CHANNELS 3 Zrotation Yrotation Xrotation
						End Site
						{
OFFSET 0.0 0.0 0.0
						}
					}
				}
				JOINT LeftShoulder
				{
OFFSET 7.8845 12.1749 -3.4090000000000003
					CHANNELS 3 Zrotation Yrotation Xrotation
					JOINT LeftArm
					{
OFFSET 9.0977 3.0469 -0.8867999999999999
						CHANNELS 3 Zrotation Yrotation Xrotation
						JOINT LeftForeArm
						{
OFFSET 25.9612 -1.2772000000000001 -2.7456
							CHANNELS 3 Zrotation Yrotation Xrotation
							JOINT LeftHand
							{
OFFSET 24.9234 0.8986 -0.1171
								CHANNELS 3 Zrotation Yrotation Xrotation
								End Site
								{
OFFSET 0.0 0.0 0.0
								}
							}
						}
					}
				}
				JOINT RightShoulder
				{
OFFSET -8.1759 11.8833 -3.8614999999999995
					CHANNELS 3 Zrotation Yrotation Xrotation
					JOINT RightArm
					{
OFFSET -9.6012 3.2550999999999997 -0.9143
						CHANNELS 3 Zrotation Yrotation Xrotation
						JOINT RightForeArm
						{
OFFSET -25.374200000000002 -1.3329 -2.1401
							CHANNELS 3 Zrotation Yrotation Xrotation
							JOINT RightHand
							{
OFFSET -25.5298 0.7772 -0.5559
								CHANNELS 3 Zrotation Yrotation Xrotation
								End Site
								{
OFFSET 0.0 0.0 0.0
								}
							}
						}
					}
				}
			}
		}
	}
}
MOTION
Frames: 14
Frame Time: 0.050000
-11.1817 109.08009999999999 6.296799999999999 0.241876 2.238925 1.969183 7.127159 -0.616634 -14.890125 -5.489198 0.781452 23.148207 1.721481 10.314010 23.381624 0.000000 0.000000 0.000000 -6.075883 0.946119 -18.302340 6.770600 -1.584395 28.690225 -2.252646 -10.766971 21.061662 0.000000 0.000000 0.000000 -0.567528 -0.397452 10.692938 -0.424749 0.366320 -5.786123 -0.069720 -1.827834 6.538740 -2.619869 2.792294 -21.011588 0.000000 0.000000 0.000000 -3.763719 -10.353067 3.660376 -51.847510 -30.526907 7.243900 -49.642687 -70.566427 40.388161 0.000000 0.000000 0.000000 -2.777525 11.934449 4.029942 43.860680 21.361132 3.103663 54.531147 71.938070 43.574373 0.000000 0.000000 0.000000
-11.2566 102.4802 5.1541 0.227007 0.480946 2.830513 8.150954 -0.524223 -17.658468 -5.072641 0.837215 27.648098 1.965322 9.296337 18.059165 0.000000 0.000000 0.000000 -6.816332 1.129421 -23.523420 7.516211 -1.920131 35.851604 -3.540113 -12.686576 18.520453 0.000000 0.000000 0.000000 -0.379464 -0.401834 10.758844 -0.961837 0.520441 -3.456872 -0.967100 -0.489703 7.028731 -2.916048 2.989894 -19.756003 0.000000 0.000000 0.000000 -2.688164 -12.217514 4.305045 -47.394816 -32.570339 7.177440 -48.539456 -79.394406 45.489289 0.000000 0.000000 0.000000 -2.871799 12.138989 4.100179 40.048827 23.122959 3.253299 43.380125 76.389931 37.876958 0.000000 0.000000 0.000000
-11.438600000000001 93.3445 3.4937000000000005 -0.000716 1.627052 1.938411 10.142873 -0.335709 -23.331048 -8.630153 2.555910 41.695511 5.023050 10.300439 -0.988001 0.000000 0.000000 0.000000 -7.608515 1.006959 -27.638742 8.658345 -3.348969 48.088015 -5.185753 -13.258856 1.921627 0.000000 0.000000 0.000000 0.372163 -0.777682 16.479187 -1.795728 0.932879 -6.366546 -1.036548 -1.751673 8.953073 -1.904996 2.443653 -22.418667 0.000000 0.000000 0.000000 -3.032686 -14.292162 5.163754 -40.157094 -34.802304 6.308037 -1.716567 -85.880922 6.697180 0.000000 0.000000 0.000000 -2.020694 13.674932 4.614931 33.726239 24.720251 2.718842 29.881405 78.337992 27.459632 0.000000 0.000000 0.000000
-11.7088 83.9379 1.2242 -0.528096 3.582933 -0.451129 12.915118 0.112940 -34.362251 -11.569447 4.960114 62.917052 7.310214 13.961762 -7.836297 0.000000 0.000000 0.000000 -6.959305 1.085662 -34.004455 9.012292 -5.443761 63.684509 -7.556254 -17.998415 -12.747089 0.000000 0.000000 0.000000 1.095601 -1.582310 26.041218 -1.597341 0.903158 -7.251836 -1.942241 -2.367039 8.048181 0.719584 1.375337 -26.802825 0.000000 0.000000 0.000000 -3.774271 -17.470163 6.346560 -31.366677 -35.409387 4.594520 45.857418 -81.432805 -35.705123 0.000000 0.000000 0.000000 -0.201203 14.744959 5.060278 28.048846 25.072419 2.126563 13.168670 78.016228 13.588901 0.000000 0.000000 0.000000
-12.0494 76.858 -0.8786 -0.760112 3.738261 -1.594950 13.729305 0.375052 -45.649948 -12.832439 7.675010 79.045221 9.058982 18.211271 -8.412362 0.000000 0.000000 0.000000 -6.768318 1.271762 -43.419622 8.799054 -6.805539 79.186300 -9.099212 -22.948444 -14.025239 0.000000 0.000000 0.000000 1.352175 -2.233956 33.490907 -3.351560 1.619340 -7.458813 -0.804040 -3.554361 8.022021 1.191121 1.208493 -30.533746 0.000000 0.000000 0.000000 -5.822707 -20.649907 7.990194 -22.145005 -35.740509 2.674228 45.497637 -74.368979 -31.194805 0.000000 0.000000 0.000000 -0.252845 17.882657 6.051563 24.297855 27.158744 1.992751 -15.734404 70.825764 -9.055813 0.000000 0.000000 0.000000
-12.3718 71.51809999999999 -2.4337 -1.079879 3.139365 -2.237012 14.815470 1.057103 -53.377923 -13.260697 10.033681 88.654708 10.161465 20.841138 -7.733495 0.000000 0.000000 0.000000 -6.728166 1.535156 -50.596950 9.230310 -7.974034 88.945261 -10.544281 -27.599645 -13.475578 0.000000 0.000000 0.000000 1.215876 -2.536468 38.659274 -3.578406 1.710940 -6.316807 -0.247770 -2.856017 6.368128 1.010943 1.446652 -32.032339 0.000000 0.000000 0.000000 -6.395643 -23.412827 9.169154 -17.599120 -35.166989 1.725177 39.728457 -69.724683 -24.769006 0.000000 0.000000 0.000000 0.410640 20.137013 6.884216 21.915892 28.328342 1.917898 -20.862665 64.990552 -11.298484 0.000000 0.000000 0.000000
-12.7076 67.2253 -3.5476 -1.013062 2.849833 -2.796781 15.273063 1.481052 -58.665636 -12.330997 10.374163 95.583629 10.483809 21.682203 -10.504992 0.000000 0.000000 0.000000 -6.588371 1.799671 -56.113514 10.063096 -9.745842 96.002113 -12.194060 -32.926377 -13.574265 0.000000 0.000000 0.000000 0.693269 -2.630863 42.925421 -3.546003 1.685898 -7.895819 0.222842 -2.908143 7.127232 1.031101 1.329357 -31.228723 0.000000 0.000000 0.000000 -4.517893 -25.870501 9.851811 -14.098303 -34.154833 0.906893 34.469242 -65.894874 -19.564762 0.000000 0.000000 0.000000 0.219548 23.285609 7.922642 17.237786 28.223169 1.122710 -24.904367 61.787304 -13.143017 0.000000 0.000000 0.000000
-13.0216 63.9582 -4.429 -1.048609 3.125636 -3.710705 15.370128 1.500696 -61.884508 -11.328899 9.675410 99.922484 10.038781 20.649266 -14.004988 0.000000 0.000000 0.000000 -6.349198 1.884744 -58.211143 10.464898 -11.291012 101.067208 -13.243011 -36.623857 -14.405399 0.000000 0.000000 0.000000 0.209347 -2.602992 44.513958 -3.243026 1.577158 -7.099989 0.602724 -2.802093 6.345016 1.870592 1.050159 -32.184401 0.000000 0.000000 0.000000 -2.767664 -27.793655 10.194218 -11.509406 -34.345639 0.475690 34.787692 -61.927329 -18.422278 0.000000 0.000000 0.000000 -0.212022 25.641804 8.660703 13.991541 28.340064 0.661914 -28.346303 60.454769 -14.848661 0.000000 0.000000 0.000000
-13.3156 62.0062 -5.0577 -0.974608 2.644721 -4.486360 15.533932 1.784325 -61.742846 -10.590535 9.068012 101.870284 10.243314 21.288482 -16.595976 0.000000 0.000000 0.000000 -6.097555 2.204390 -59.019884 10.854202 -12.269901 104.476482 -13.267241 -37.328460 -15.359571 0.000000 0.000000 0.000000 -0.782603 -2.195433 45.983285 -3.184988 1.552222 -6.746242 1.169547 -2.874664 5.348406 1.979257 0.880405 -31.039196 0.000000 0.000000 0.000000 -3.319143 -28.728929 10.688558 -7.526786 -32.702860 -0.290274 35.906662 -59.494164 -18.253608 0.000000 0.000000 0.000000 0.127890 26.910650 9.102790 11.075665 28.468295 0.244804 -32.768396 61.525248 -18.036429 0.000000 0.000000 0.000000
-13.5661 62.1148 -5.3388 -1.156761 3.244164 -4.832145 15.057206 1.255455 -60.569867 -10.593674 8.507432 100.860871 10.225481 21.342873 -18.377673 0.000000 0.000000 0.000000 -5.308411 2.425576 -58.774053 10.838789 -12.697964 104.724159 -13.227800 -37.246149 -15.465976 0.000000 0.000000 0.000000 -0.673304 -2.280884 44.721033 -2.405637 1.226852 -5.036657 0.732608 -3.154618 4.257923 3.003848 0.402401 -30.469774 0.000000 0.000000 0.000000 -4.029811 -29.507370 11.152733 -5.841418 -31.406377 -0.565627 38.192200 -59.714174 -19.748435 0.000000 0.000000 0.000000 -0.520066 27.908002 9.351320 10.953873 28.447793 0.265608 -34.841813 63.654999 -20.153520 0.000000 0.000000 0.000000
-13.7594 64.6412 -5.2186 -0.942662 2.829855 -5.055788 14.461095 1.045667 -56.753125 -10.739121 8.057685 96.270710 9.796803 19.939719 -17.798899 0.000000 0.000000 0.000000 -5.397333 2.408136 -55.803381 11.160369 -12.129078 100.630360 -13.232338 -36.310046 -13.798989 0.000000 0.000000 0.000000 -1.303410 -1.842320 43.058348 -2.057287 1.071456 -4.942659 0.793200 -3.084064 4.384820 2.406968 0.524016 -28.869607 0.000000 0.000000 0.000000 -4.972888 -27.614353 10.588385 -8.382133 -30.786320 -0.163773 43.640900 -66.998481 -26.480178 0.000000 0.000000 0.000000 -0.031202 27.019353 9.104654 13.702048 28.885279 0.753319 -35.693476 69.879303 -23.413762 0.000000 0.000000 0.000000
-13.897100000000002 69.0967 -4.6945 -0.451714 1.950038 -4.989556 15.113033 1.563439 -51.623333 -12.085499 9.035142 88.875389 9.274450 18.338656 -15.289327 0.000000 0.000000 0.000000 -4.490503 2.880970 -50.913020 11.069317 -10.252489 93.780859 -12.470932 -34.121627 -14.219894 0.000000 0.000000 0.000000 -1.595357 -1.351735 38.443210 -1.566264 0.841391 -4.639296 -0.078698 -2.510059 4.875603 2.802751 0.244244 -27.218810 0.000000 0.000000 0.000000 -6.699021 -24.094188 9.407976 -14.256757 -29.491272 0.646950 48.392601 -78.483791 -36.496491 0.000000 0.000000 0.000000 1.885598 24.713763 8.603031 19.955475 29.456055 1.876741 -18.692319 78.185951 -13.117983 0.000000 0.000000 0.000000
-13.9878 74.7875 -3.9101 0.108894 3.073315 -4.783644 13.840089 0.640103 -45.797025 -12.575891 7.625717 79.244340 8.351979 16.159981 -10.861363 0.000000 0.000000 0.000000 -4.871276 2.139873 -43.758742 10.260773 -8.367042 83.150028 -10.988206 -29.452275 -14.967231 0.000000 0.000000 0.000000 -0.719955 -1.481845 33.040790 -1.555086 0.852962 -4.720765 -0.949554 -2.667116 5.725810 2.502908 0.320485 -25.797368 0.000000 0.000000 0.000000 -8.301913 -21.013268 8.286706 -22.818511 -28.720466 1.767270 -53.180078 -88.446374 56.289684 0.000000 0.000000 0.000000 3.483450 21.209632 7.562751 28.256763 27.004718 2.757471 47.186580 80.120958 42.578159 0.000000 0.000000 0.000000
-14.0082 80.5441 -3.0256000000000003 0.288626 3.466863 -4.599590 13.569552 0.438351 -39.326020 -13.198430 6.744343 68.747708 7.438312 14.340340 -7.132430 0.000000 0.000000 0.000000 -5.108829 1.698283 -36.249537 9.525736 -6.451896 71.099197 -9.588714 -24.713338 -14.564543 0.000000 0.000000 0.000000 -0.701192 -1.204079 27.340549 -0.825804 0.514623 -3.790763 -1.782184 -1.810509 5.948598 3.138267 0.058973 -24.720756 0.000000 0.000000 0.000000 -8.010764 -16.328397 6.078176 -32.353213 -25.702671 2.408905 -108.002176 -76.663426 99.103506 0.000000 0.000000 0.000000 5.813623 16.461274 6.073147 34.532259 24.692557 3.050020 80.878508 72.597698 66.783405 0.000000 0.000000 0.000000
